# xmcd
#
# Track frame offsets: 
#        150
#        24178
#        39355
#        58948
#        79475
#        99743
#        127703
#        139350
#        160913
#        183323
#        197115
#        209013
#        230558
#
# Disc length: 3300 seconds
#
# Revision: 5
# Processed by: cddbd v1.5.2PL0 Copyright (c) Steve Scherf et al.
# Submitted via: ExactAudioCopy v1.0b1
#
DISCID=b70ce20d
DTITLE=Diana Krall - when i look in your eyes
DYEAR=1999
DGENRE=Jazz
TTITLE0=Let's Face The Music And Dance
TTITLE1=Devil May Care
TTITLE2=Let's Fall In Love
TTITLE3=When I Look In Your Eyes
TTITLE4=Popsicle Toes
TTITLE5=I've Got You Under My Skin
TTITLE6=I Can't Give You Anything But Love
TTITLE7=I'll String Along With You
TTITLE8=East Of The Sun (And West Of The Moon)
TTITLE9=Pick Yourself Up
TTITLE10=The Best Thing For You
TTITLE11=Do It Again
TTITLE12=Why Should I Care
EXTD=
EXTT0=
EXTT1=
EXTT2=
EXTT3=
EXTT4=
EXTT5=
EXTT6=
EXTT7=
EXTT8=
EXTT9=
EXTT10=
EXTT11=
EXTT12=
PLAYORDER=
